<mxfile host="app.diagrams.net" modified="2023-06-19T13:40:40.830Z" agent="Mozilla/5.0 (Windows NT 10.0; Win64; x64) AppleWebKit/537.36 (KHTML, like Gecko) Chrome/113.0.0.0 Safari/537.36 Edg/113.0.1774.57" etag="jL0dbrQcEeDV2U4qfSv2" version="21.3.8" type="device">
  <diagram name="Page-1" id="fc2ac565-0d4e-3f0d-88b0-a54af1634ed7">
    <mxGraphModel dx="3408.5" dy="724" grid="1" gridSize="10" guides="1" tooltips="1" connect="0" arrows="1" fold="1" page="1" pageScale="1.5" pageWidth="1169" pageHeight="827" background="none" math="0" shadow="0">
      <root>
        <mxCell id="0" style=";html=1;" />
        <mxCell id="1" style=";html=1;" parent="0" />
        <mxCell id="u75BXIUDljDvFFVzcD1L-124" value="" style="align=left;strokeColor=#000000;html=1;" vertex="1" parent="1">
          <mxGeometry x="617" y="150" width="493" height="20" as="geometry" />
        </mxCell>
        <mxCell id="75" value="&lt;div&gt;&lt;span style=&quot;background-color: initial;&quot;&gt;External Tables&lt;/span&gt;&lt;/div&gt;" style="align=left;strokeColor=#000000;html=1;" parent="1" vertex="1">
          <mxGeometry x="-260" y="170" width="877" height="20" as="geometry" />
        </mxCell>
        <mxCell id="80" value="Processos dinámicos(DELETE, UPDATE)" style="align=left;strokeColor=#000000;html=1;" parent="1" vertex="1">
          <mxGeometry x="-260" y="190" width="877" height="20" as="geometry" />
        </mxCell>
        <mxCell id="85" value="PROCEDURES(INSERTS)" style="align=left;strokeColor=#000000;html=1;" parent="1" vertex="1">
          <mxGeometry x="-260" y="210" width="877" height="20" as="geometry" />
        </mxCell>
        <mxCell id="90" value="Reportes ao Banco de Portugal (VIEWS)" style="align=left;strokeColor=#191919;html=1;" parent="1" vertex="1">
          <mxGeometry x="-260" y="230" width="877" height="20" as="geometry" />
        </mxCell>
        <mxCell id="95" value="&lt;div&gt;Mecanismo que registe todas as alteração ocorridas na tabela de clientes.&amp;nbsp;&lt;/div&gt;" style="align=left;strokeColor=#000000;html=1;" parent="1" vertex="1">
          <mxGeometry x="-260" y="250" width="877" height="20" as="geometry" />
        </mxCell>
        <mxCell id="100" value="&lt;div&gt;Definição de potenciais índices e utilização de “&lt;span style=&quot;background-color: initial;&quot;&gt;hints ”&lt;/span&gt;&lt;/div&gt;" style="align=left;strokeColor=#000000;html=1;" parent="1" vertex="1">
          <mxGeometry x="-260" y="270" width="877" height="20" as="geometry" />
        </mxCell>
        <mxCell id="2" value="Tarefas" style="strokeWidth=1;fontStyle=0;html=1;strokeColor=#000000;" parent="1" vertex="1">
          <mxGeometry x="-260" y="130" width="877" height="20" as="geometry" />
        </mxCell>
        <mxCell id="67c90442a009f359-289" value="&lt;div&gt;Criação de processos de expurgo de histórico da tabela de movimentos para uma tabela de histórico&lt;span style=&quot;background-color: initial;&quot;&gt;fazendo uso de “ bulk insert ” e utilização de paralelismo&lt;/span&gt;&lt;/div&gt;" style="align=left;strokeColor=#000000;html=1;" parent="1" vertex="1">
          <mxGeometry x="-260" y="290" width="877" height="20" as="geometry" />
        </mxCell>
        <mxCell id="67c90442a009f359-290" value="Implementar uma tabela que permita validar o código postal, o concelho e o distrito" style="align=left;strokeColor=#212121;html=1;" parent="1" vertex="1">
          <mxGeometry x="-260" y="310" width="877" height="20" as="geometry" />
        </mxCell>
        <mxCell id="67c90442a009f359-291" value="" style="align=left;strokeColor=#000000;html=1;" parent="1" vertex="1">
          <mxGeometry x="617" y="170" width="493" height="20" as="geometry" />
        </mxCell>
        <mxCell id="4" value="1" style="strokeWidth=1;fontStyle=0;html=1;strokeColor=#000000;" parent="1" vertex="1">
          <mxGeometry x="617" y="130" width="70" height="20" as="geometry" />
        </mxCell>
        <mxCell id="67c90442a009f359-278" value="2" style="strokeWidth=1;fontStyle=0;html=1;strokeColor=#000000;" parent="1" vertex="1">
          <mxGeometry x="688.5" y="130" width="70" height="20" as="geometry" />
        </mxCell>
        <mxCell id="67c90442a009f359-279" value="3" style="strokeWidth=1;fontStyle=0;html=1;strokeColor=#000000;" parent="1" vertex="1">
          <mxGeometry x="760" y="130" width="70" height="20" as="geometry" />
        </mxCell>
        <mxCell id="67c90442a009f359-280" value="4" style="strokeWidth=1;fontStyle=0;html=1;strokeColor=#000000;" parent="1" vertex="1">
          <mxGeometry x="830" y="130" width="70" height="20" as="geometry" />
        </mxCell>
        <mxCell id="67c90442a009f359-281" value="5" style="strokeWidth=1;fontStyle=0;html=1;strokeColor=#000000;" parent="1" vertex="1">
          <mxGeometry x="897" y="130" width="70" height="20" as="geometry" />
        </mxCell>
        <mxCell id="67c90442a009f359-282" value="6" style="strokeWidth=1;fontStyle=0;html=1;strokeColor=#000000;" parent="1" vertex="1">
          <mxGeometry x="967" y="130" width="70" height="20" as="geometry" />
        </mxCell>
        <mxCell id="67c90442a009f359-283" value="7" style="strokeWidth=1;fontStyle=0;html=1;strokeColor=#000000;" parent="1" vertex="1">
          <mxGeometry x="1037" y="130" width="73" height="20" as="geometry" />
        </mxCell>
        <mxCell id="67c90442a009f359-292" value="" style="align=left;strokeColor=#000000;html=1;" parent="1" vertex="1">
          <mxGeometry x="617" y="190" width="493" height="20" as="geometry" />
        </mxCell>
        <mxCell id="67c90442a009f359-293" value="" style="align=left;strokeColor=#000000;html=1;" parent="1" vertex="1">
          <mxGeometry x="617" y="210" width="493" height="20" as="geometry" />
        </mxCell>
        <mxCell id="67c90442a009f359-294" value="" style="align=left;strokeColor=#000000;html=1;" parent="1" vertex="1">
          <mxGeometry x="617" y="230" width="493" height="20" as="geometry" />
        </mxCell>
        <mxCell id="67c90442a009f359-295" value="" style="align=left;strokeColor=#000000;html=1;" parent="1" vertex="1">
          <mxGeometry x="617" y="250" width="493" height="20" as="geometry" />
        </mxCell>
        <mxCell id="67c90442a009f359-296" value="" style="align=left;strokeColor=#000000;html=1;" parent="1" vertex="1">
          <mxGeometry x="617" y="270" width="493" height="20" as="geometry" />
        </mxCell>
        <mxCell id="67c90442a009f359-297" value="" style="align=left;strokeColor=#191919;html=1;" parent="1" vertex="1">
          <mxGeometry x="617" y="290" width="493" height="20" as="geometry" />
        </mxCell>
        <mxCell id="67c90442a009f359-298" value="" style="align=left;strokeColor=#000000;html=1;" parent="1" vertex="1">
          <mxGeometry x="617" y="310" width="493" height="20" as="geometry" />
        </mxCell>
        <mxCell id="67c90442a009f359-299" value="" style="whiteSpace=wrap;html=1;strokeWidth=2;fillColor=#CCCCCC;gradientColor=none;fontSize=14;align=center;strokeColor=#999999;" parent="1" vertex="1">
          <mxGeometry x="617" y="170" width="143" height="20" as="geometry" />
        </mxCell>
        <mxCell id="67c90442a009f359-300" value="" style="whiteSpace=wrap;html=1;strokeWidth=2;fillColor=#CCCCCC;gradientColor=none;fontSize=14;align=center;strokeColor=#999999;" parent="1" vertex="1">
          <mxGeometry x="617" y="190" width="343" height="20" as="geometry" />
        </mxCell>
        <mxCell id="67c90442a009f359-301" value="" style="whiteSpace=wrap;html=1;strokeWidth=2;fillColor=#CCCCCC;gradientColor=none;fontSize=14;align=center;strokeColor=#999999;" parent="1" vertex="1">
          <mxGeometry x="617" y="210" width="273" height="20" as="geometry" />
        </mxCell>
        <mxCell id="67c90442a009f359-302" value="" style="whiteSpace=wrap;html=1;strokeWidth=2;fillColor=#CCCCCC;gradientColor=none;fontSize=14;align=center;strokeColor=#999999;" parent="1" vertex="1">
          <mxGeometry x="617" y="230" width="213" height="20" as="geometry" />
        </mxCell>
        <mxCell id="u75BXIUDljDvFFVzcD1L-100" value="Criação dos tablespaces" style="align=left;strokeColor=#030303;html=1;" vertex="1" parent="1">
          <mxGeometry x="-260" y="330" width="877" height="20" as="geometry" />
        </mxCell>
        <mxCell id="u75BXIUDljDvFFVzcD1L-101" value="" style="align=left;strokeColor=#000000;html=1;" vertex="1" parent="1">
          <mxGeometry x="617" y="330" width="493" height="20" as="geometry" />
        </mxCell>
        <mxCell id="u75BXIUDljDvFFVzcD1L-112" value="" style="whiteSpace=wrap;html=1;strokeWidth=2;fillColor=#CCCCCC;gradientColor=none;fontSize=14;align=center;strokeColor=#999999;" vertex="1" parent="1">
          <mxGeometry x="617" y="250" width="63" height="20" as="geometry" />
        </mxCell>
        <mxCell id="u75BXIUDljDvFFVzcD1L-116" value="" style="whiteSpace=wrap;html=1;strokeWidth=2;fillColor=#CCCCCC;gradientColor=none;fontSize=14;align=center;strokeColor=#999999;" vertex="1" parent="1">
          <mxGeometry x="617" y="290" width="213" height="20" as="geometry" />
        </mxCell>
        <mxCell id="u75BXIUDljDvFFVzcD1L-117" value="" style="whiteSpace=wrap;html=1;strokeWidth=2;fillColor=#CCCCCC;gradientColor=none;fontSize=14;align=center;strokeColor=#999999;" vertex="1" parent="1">
          <mxGeometry x="617" y="310" width="143" height="20" as="geometry" />
        </mxCell>
        <mxCell id="u75BXIUDljDvFFVzcD1L-118" value="" style="whiteSpace=wrap;html=1;strokeWidth=2;fillColor=#CCCCCC;gradientColor=none;fontSize=14;align=center;strokeColor=#999999;" vertex="1" parent="1">
          <mxGeometry x="617" y="330" width="213" height="20" as="geometry" />
        </mxCell>
        <mxCell id="u75BXIUDljDvFFVzcD1L-119" value="Horas" style="strokeWidth=1;fontStyle=0;html=1;strokeColor=#000000;" vertex="1" parent="1">
          <mxGeometry x="617" y="110" width="493" height="20" as="geometry" />
        </mxCell>
        <mxCell id="u75BXIUDljDvFFVzcD1L-120" value="Modelo Físico" style="align=left;strokeColor=#030303;html=1;" vertex="1" parent="1">
          <mxGeometry x="-260" y="150" width="877" height="20" as="geometry" />
        </mxCell>
        <mxCell id="u75BXIUDljDvFFVzcD1L-122" value="" style="whiteSpace=wrap;html=1;strokeWidth=2;fillColor=#CCCCCC;gradientColor=none;fontSize=14;align=center;strokeColor=#999999;" vertex="1" parent="1">
          <mxGeometry x="617" y="150" width="403" height="20" as="geometry" />
        </mxCell>
        <mxCell id="u75BXIUDljDvFFVzcD1L-123" value="" style="whiteSpace=wrap;html=1;strokeWidth=2;fillColor=#CCCCCC;gradientColor=none;fontSize=14;align=center;strokeColor=#999999;" vertex="1" parent="1">
          <mxGeometry x="617" y="270" width="143" height="20" as="geometry" />
        </mxCell>
      </root>
    </mxGraphModel>
  </diagram>
</mxfile>
